# xmcd
#
# Track frame offsets: 
#        150
#        18115
#        35200
#        49842
#        68097
#        81572
#        97725
#        115492
#        132322
#        147602
#
# Disc length: 2172 seconds
#
# Revision: 3
# Processed by: cddbd v1.5.2PL0 Copyright (c) Steve Scherf et al.
# Submitted via: ExactAudioCopy v1.3
#
DISCID=8f087a0a
DTITLE=詹雅雯 - 金曲歌后暢銷專輯 No. 4 [CD 02 - 人生舞台)
DYEAR=2013
DGENRE=Pop
TTITLE0=人生舞台
TTITLE1=贏你喲
TTITLE2=落雨的車站
TTITLE3=移情別戀
TTITLE4=感情的可憐人
TTITLE5=看破
TTITLE6=愛情的墓仔埔
TTITLE7=回頭路
TTITLE8=三心兩意
TTITLE9=牽手一生
EXTD=
EXTT0=
EXTT1=
EXTT2=
EXTT3=
EXTT4=
EXTT5=
EXTT6=
EXTT7=
EXTT8=
EXTT9=
PLAYORDER=
